<svg width="34" height="34" viewBox="0 0 34 34" fill="none" xmlns="http://www.w3.org/2000/svg">
<path fill-rule="evenodd" clip-rule="evenodd" d="M18.3692 9.9643L21.2549 7.07861C22.5883 5.74528 23.2549 5.07861 24.0833 5.07861C24.9118 5.07861 25.5801 5.74692 26.9167 7.08352C28.2533 8.42012 28.9216 9.08843 28.9216 9.91685C28.9216 10.7453 28.2549 11.4119 26.9216 12.7453L24.0671 15.5998C21.7097 14.2366 19.7497 12.2913 18.3692 9.9643ZM16.9149 11.4186L6.52306 21.8105C6.098 22.2355 5.88547 22.4481 5.74574 22.7092C5.606 22.9703 5.54706 23.265 5.42917 23.8544L4.3971 29.0148C4.33058 29.3474 4.29732 29.5137 4.39193 29.6083C4.48653 29.7029 4.65283 29.6696 4.98541 29.6031L4.98544 29.6031L4.98545 29.6031L10.1458 28.571C10.7352 28.4531 11.0299 28.3942 11.291 28.2545C11.5521 28.1147 11.7647 27.9022 12.1897 27.4771L22.609 17.0578C20.3025 15.6304 18.3568 13.6983 16.9149 11.4186Z" fill="#E1B767"/>
</svg>
