<svg width="205" height="113" viewBox="0 0 205 113" fill="none" xmlns="http://www.w3.org/2000/svg">
<path d="M16.32 88H9.6V25.6H19.68L30.624 66.784L41.664 25.6H51.744V88H45.024V36.352L33.792 78.4H27.552L16.32 36.352V88ZM102.113 37.6V76C102.113 80.288 100.737 83.616 97.9845 85.984C95.2965 88.288 91.2325 89.44 85.7925 89.44C80.4165 89.44 76.3525 88.288 73.6005 85.984C70.8485 83.616 69.4725 80.288 69.4725 76V37.6C69.4725 33.312 70.8165 30.016 73.5045 27.712C76.2565 25.344 80.3205 24.16 85.6965 24.16C91.1365 24.16 95.2325 25.344 97.9845 27.712C100.737 30.016 102.113 33.312 102.113 37.6ZM95.3925 76V37.6C95.3925 32.48 92.1925 29.92 85.7925 29.92C79.3925 29.92 76.1925 32.48 76.1925 37.6V76C76.1925 81.12 79.3925 83.68 85.7925 83.68C92.1925 83.68 95.3925 81.12 95.3925 76ZM138.282 88H128.202L114.09 25.6H120.81L133.194 80.608L145.674 25.6H152.394L138.282 88ZM189.308 76V70.72H196.028V76C196.028 80.288 194.716 83.616 192.092 85.984C189.468 88.288 185.532 89.44 180.284 89.44C175.036 89.44 171.068 88.288 168.38 85.984C165.692 83.616 164.348 80.288 164.348 76V37.6C164.348 33.312 165.66 30.016 168.284 27.712C170.908 25.344 174.844 24.16 180.092 24.16C185.34 24.16 189.308 25.344 191.996 27.712C194.684 30.016 196.028 33.312 196.028 37.6V58.72H171.068V76C171.068 81.12 174.108 83.68 180.188 83.68C186.268 83.68 189.308 81.12 189.308 76ZM171.068 37.6V52.96H189.308V37.6C189.308 32.48 186.268 29.92 180.188 29.92C174.108 29.92 171.068 32.48 171.068 37.6Z" fill="black"/>
<path d="M10.168 108C10.0187 108 9.944 107.925 9.944 107.776V97.744C9.944 97.5947 10.0187 97.52 10.168 97.52H13.752C15.0853 97.52 16.088 97.7333 16.76 98.16C17.432 98.576 17.768 99.216 17.768 100.08C17.768 100.72 17.6293 101.227 17.352 101.6C17.0853 101.973 16.6693 102.256 16.104 102.448V102.496C16.7653 102.624 17.2827 102.88 17.656 103.264C18.0293 103.637 18.216 104.171 18.216 104.864C18.216 105.984 17.864 106.789 17.16 107.28C16.4667 107.76 15.3253 108 13.736 108H10.168ZM12.584 105.872H13.88C14.4773 105.872 14.9093 105.787 15.176 105.616C15.4427 105.445 15.576 105.152 15.576 104.736C15.576 104.363 15.4373 104.091 15.16 103.92C14.8933 103.739 14.4613 103.648 13.864 103.648H12.584V105.872ZM12.584 101.744H13.736C14.2267 101.744 14.5787 101.653 14.792 101.472C15.016 101.291 15.128 101.019 15.128 100.656C15.128 100.325 15.0053 100.075 14.76 99.904C14.5253 99.7333 14.152 99.648 13.64 99.648H12.584V101.744ZM31.4329 108C31.2835 108 31.2089 107.925 31.2089 107.776V104.368L27.8009 97.792C27.7582 97.7067 27.7529 97.6427 27.7849 97.6C27.8275 97.5467 27.8862 97.52 27.9609 97.52H30.4089C30.5475 97.52 30.6329 97.5733 30.6649 97.68L31.6729 99.936C31.8329 100.309 31.9822 100.677 32.1209 101.04C32.2702 101.392 32.4089 101.744 32.5369 102.096H32.5529C32.6809 101.733 32.8142 101.381 32.9529 101.04C33.1022 100.688 33.2569 100.325 33.4169 99.952L34.4249 97.68C34.4675 97.5733 34.5529 97.52 34.6809 97.52H37.0969C37.1715 97.52 37.2249 97.5467 37.2569 97.6C37.2995 97.6427 37.2995 97.7067 37.2569 97.792L33.8489 104.368V107.776C33.8489 107.925 33.7795 108 33.6409 108H31.4329ZM62.6644 108C62.5257 108 62.4564 107.925 62.4564 107.776V99.808H59.8324C59.683 99.808 59.6084 99.7333 59.6084 99.584V97.744C59.6084 97.5947 59.683 97.52 59.8324 97.52H67.7044C67.843 97.52 67.9124 97.5947 67.9124 97.744V99.584C67.9124 99.7333 67.843 99.808 67.7044 99.808H65.0804V107.776C65.0804 107.925 65.0057 108 64.8564 108H62.6644ZM78.8186 108C78.6693 108 78.5946 107.925 78.5946 107.776V97.744C78.5946 97.5947 78.6693 97.52 78.8186 97.52H81.0266C81.1653 97.52 81.2346 97.5947 81.2346 97.744V101.6H84.8986V97.744C84.8986 97.5947 84.9733 97.52 85.1226 97.52H87.3146C87.464 97.52 87.5386 97.5947 87.5386 97.744V107.776C87.5386 107.925 87.464 108 87.3146 108H85.1226C84.9733 108 84.8986 107.925 84.8986 107.776V103.872H81.2346V107.776C81.2346 107.925 81.1653 108 81.0266 108H78.8186ZM99.0867 108C98.9374 108 98.8627 107.925 98.8627 107.776V97.744C98.8627 97.5947 98.9374 97.52 99.0867 97.52H105.743C105.881 97.52 105.951 97.5947 105.951 97.744V99.584C105.951 99.7333 105.881 99.808 105.743 99.808H101.503V101.648H105.359C105.497 101.648 105.567 101.723 105.567 101.872V103.584C105.567 103.733 105.497 103.808 105.359 103.808H101.503V105.712H105.743C105.881 105.712 105.951 105.787 105.951 105.936V107.776C105.951 107.925 105.881 108 105.743 108H99.0867ZM129.857 108C129.708 108 129.633 107.925 129.633 107.776V97.744C129.633 97.5947 129.708 97.52 129.857 97.52H133.217C134.721 97.52 135.804 97.8293 136.465 98.448C137.137 99.0667 137.473 99.9627 137.473 101.136C137.473 102.267 137.121 103.147 136.417 103.776C135.724 104.395 134.663 104.704 133.233 104.704H132.273V107.776C132.273 107.925 132.199 108 132.049 108H129.857ZM132.273 102.464H133.201C133.724 102.464 134.124 102.363 134.401 102.16C134.689 101.957 134.833 101.616 134.833 101.136C134.833 100.645 134.7 100.299 134.433 100.096C134.167 99.8827 133.756 99.776 133.201 99.776H132.273V102.464ZM146.679 108C146.509 108 146.45 107.915 146.503 107.744L149.831 97.696C149.874 97.5787 149.959 97.52 150.087 97.52H152.935C153.063 97.52 153.149 97.5787 153.191 97.696L156.535 107.744C156.557 107.819 156.551 107.883 156.519 107.936C156.498 107.979 156.445 108 156.359 108H153.959C153.821 108 153.735 107.941 153.703 107.824L152.087 102.032C151.981 101.648 151.879 101.264 151.783 100.88C151.687 100.496 151.597 100.117 151.511 99.744H151.479C151.394 100.128 151.303 100.512 151.207 100.896C151.111 101.28 151.01 101.664 150.903 102.048L149.319 107.808C149.287 107.936 149.202 108 149.063 108H146.679ZM149.399 106.128L149.815 104.064H153.127L153.559 106.128H149.399ZM167.097 108C166.947 108 166.873 107.925 166.873 107.776V97.744C166.873 97.5947 166.947 97.52 167.097 97.52H170.793C172.297 97.52 173.379 97.8133 174.041 98.4C174.702 98.9867 175.033 99.824 175.033 100.912C175.033 101.616 174.883 102.219 174.585 102.72C174.286 103.221 173.806 103.573 173.145 103.776V103.808L175.609 107.728C175.662 107.803 175.673 107.867 175.641 107.92C175.609 107.973 175.55 108 175.465 108H173.001C172.883 108 172.793 107.952 172.729 107.856L170.553 104.176H169.513V107.776C169.513 107.925 169.438 108 169.289 108H167.097ZM169.513 102.112H170.793C171.326 102.112 171.726 102.021 171.993 101.84C172.259 101.648 172.393 101.344 172.393 100.928C172.393 100.523 172.27 100.229 172.025 100.048C171.79 99.856 171.401 99.76 170.857 99.76H169.513V102.112ZM186.521 108C186.372 108 186.297 107.925 186.297 107.776V97.744C186.297 97.5947 186.372 97.52 186.521 97.52H188.713C188.862 97.52 188.937 97.5947 188.937 97.744V100.064C188.937 100.267 188.932 100.475 188.921 100.688C188.921 100.891 188.916 101.099 188.905 101.312C188.894 101.515 188.884 101.723 188.873 101.936H188.905C189.086 101.627 189.273 101.323 189.465 101.024C189.657 100.715 189.87 100.405 190.105 100.096L192.025 97.648C192.078 97.5627 192.164 97.52 192.281 97.52H194.937C195.022 97.52 195.081 97.5467 195.113 97.6C195.145 97.6427 195.129 97.7067 195.065 97.792L191.849 101.76L195.449 107.728C195.492 107.813 195.497 107.883 195.465 107.936C195.433 107.979 195.38 108 195.305 108H192.633C192.505 108 192.414 107.952 192.361 107.856L190.057 103.856L188.937 105.168V107.776C188.937 107.925 188.862 108 188.713 108H186.521Z" fill="black"/>
</svg>
