<svg width="670" height="234" viewBox="0 0 670 234" fill="none" xmlns="http://www.w3.org/2000/svg">
<rect x="1" y="2" width="668" height="231" rx="23" fill="#FCFCFC" stroke="black" stroke-width="2"/>
<path d="M163.19 197C162.91 197 162.77 196.86 162.77 196.58V177.77C162.77 177.49 162.91 177.35 163.19 177.35H169.91C172.41 177.35 174.29 177.75 175.55 178.55C176.81 179.33 177.44 180.53 177.44 182.15C177.44 183.35 177.18 184.3 176.66 185C176.16 185.7 175.38 186.23 174.32 186.59V186.68C175.56 186.92 176.53 187.4 177.23 188.12C177.93 188.82 178.28 189.82 178.28 191.12C178.28 193.22 177.62 194.73 176.3 195.65C175 196.55 172.86 197 169.88 197H163.19ZM167.72 193.01H170.15C171.27 193.01 172.08 192.85 172.58 192.53C173.08 192.21 173.33 191.66 173.33 190.88C173.33 190.18 173.07 189.67 172.55 189.35C172.05 189.01 171.24 188.84 170.12 188.84H167.72V193.01ZM167.72 185.27H169.88C170.8 185.27 171.46 185.1 171.86 184.76C172.28 184.42 172.49 183.91 172.49 183.23C172.49 182.61 172.26 182.14 171.8 181.82C171.36 181.5 170.66 181.34 169.7 181.34H167.72V185.27ZM203.062 197C202.782 197 202.642 196.86 202.642 196.58V190.19L196.252 177.86C196.172 177.7 196.162 177.58 196.222 177.5C196.302 177.4 196.412 177.35 196.552 177.35H201.142C201.402 177.35 201.562 177.45 201.622 177.65L203.512 181.88C203.812 182.58 204.092 183.27 204.352 183.95C204.632 184.61 204.892 185.27 205.132 185.93H205.162C205.402 185.25 205.652 184.59 205.912 183.95C206.192 183.29 206.482 182.61 206.782 181.91L208.672 177.65C208.752 177.45 208.912 177.35 209.152 177.35H213.682C213.822 177.35 213.922 177.4 213.982 177.5C214.062 177.58 214.062 177.7 213.982 177.86L207.592 190.19V196.58C207.592 196.86 207.462 197 207.202 197H203.062ZM261.621 197C261.361 197 261.231 196.86 261.231 196.58V181.64H256.311C256.031 181.64 255.891 181.5 255.891 181.22V177.77C255.891 177.49 256.031 177.35 256.311 177.35H271.071C271.331 177.35 271.461 177.49 271.461 177.77V181.22C271.461 181.5 271.331 181.64 271.071 181.64H266.151V196.58C266.151 196.86 266.011 197 265.731 197H261.621ZM291.91 197C291.63 197 291.49 196.86 291.49 196.58V177.77C291.49 177.49 291.63 177.35 291.91 177.35H296.05C296.31 177.35 296.44 177.49 296.44 177.77V185H303.31V177.77C303.31 177.49 303.45 177.35 303.73 177.35H307.84C308.12 177.35 308.26 177.49 308.26 177.77V196.58C308.26 196.86 308.12 197 307.84 197H303.73C303.45 197 303.31 196.86 303.31 196.58V189.26H296.44V196.58C296.44 196.86 296.31 197 296.05 197H291.91ZM329.913 197C329.633 197 329.493 196.86 329.493 196.58V177.77C329.493 177.49 329.633 177.35 329.913 177.35H342.393C342.653 177.35 342.783 177.49 342.783 177.77V181.22C342.783 181.5 342.653 181.64 342.393 181.64H334.443V185.09H341.673C341.933 185.09 342.063 185.23 342.063 185.51V188.72C342.063 189 341.933 189.14 341.673 189.14H334.443V192.71H342.393C342.653 192.71 342.783 192.85 342.783 193.13V196.58C342.783 196.86 342.653 197 342.393 197H329.913ZM387.608 197C387.328 197 387.188 196.86 387.188 196.58V177.77C387.188 177.49 387.328 177.35 387.608 177.35H393.908C396.728 177.35 398.758 177.93 399.998 179.09C401.258 180.25 401.888 181.93 401.888 184.13C401.888 186.25 401.228 187.9 399.908 189.08C398.608 190.24 396.618 190.82 393.938 190.82H392.138V196.58C392.138 196.86 391.998 197 391.718 197H387.608ZM392.138 186.62H393.878C394.858 186.62 395.608 186.43 396.128 186.05C396.668 185.67 396.938 185.03 396.938 184.13C396.938 183.21 396.688 182.56 396.188 182.18C395.688 181.78 394.918 181.58 393.878 181.58H392.138V186.62ZM419.149 197C418.829 197 418.719 196.84 418.819 196.52L425.059 177.68C425.139 177.46 425.299 177.35 425.539 177.35H430.879C431.119 177.35 431.279 177.46 431.359 177.68L437.629 196.52C437.669 196.66 437.659 196.78 437.599 196.88C437.559 196.96 437.459 197 437.299 197H432.799C432.539 197 432.379 196.89 432.319 196.67L429.289 185.81C429.089 185.09 428.899 184.37 428.719 183.65C428.539 182.93 428.369 182.22 428.209 181.52H428.149C427.989 182.24 427.819 182.96 427.639 183.68C427.459 184.4 427.269 185.12 427.069 185.84L424.099 196.64C424.039 196.88 423.879 197 423.619 197H419.149ZM424.249 193.49L425.029 189.62H431.239L432.049 193.49H424.249ZM457.431 197C457.151 197 457.011 196.86 457.011 196.58V177.77C457.011 177.49 457.151 177.35 457.431 177.35H464.361C467.181 177.35 469.211 177.9 470.451 179C471.691 180.1 472.311 181.67 472.311 183.71C472.311 185.03 472.031 186.16 471.471 187.1C470.911 188.04 470.011 188.7 468.771 189.08V189.14L473.391 196.49C473.491 196.63 473.511 196.75 473.451 196.85C473.391 196.95 473.281 197 473.121 197H468.501C468.281 197 468.111 196.91 467.991 196.73L463.911 189.83H461.961V196.58C461.961 196.86 461.821 197 461.541 197H457.431ZM461.961 185.96H464.361C465.361 185.96 466.111 185.79 466.611 185.45C467.111 185.09 467.361 184.52 467.361 183.74C467.361 182.98 467.131 182.43 466.671 182.09C466.231 181.73 465.501 181.55 464.481 181.55H461.961V185.96ZM493.852 197C493.572 197 493.432 196.86 493.432 196.58V177.77C493.432 177.49 493.572 177.35 493.852 177.35H497.962C498.242 177.35 498.382 177.49 498.382 177.77V182.12C498.382 182.5 498.372 182.89 498.352 183.29C498.352 183.67 498.342 184.06 498.322 184.46C498.302 184.84 498.282 185.23 498.262 185.63H498.322C498.662 185.05 499.012 184.48 499.372 183.92C499.732 183.34 500.132 182.76 500.572 182.18L504.172 177.59C504.272 177.43 504.432 177.35 504.652 177.35H509.632C509.792 177.35 509.902 177.4 509.962 177.5C510.022 177.58 509.992 177.7 509.872 177.86L503.842 185.3L510.592 196.49C510.672 196.65 510.682 196.78 510.622 196.88C510.562 196.96 510.462 197 510.322 197H505.312C505.072 197 504.902 196.91 504.802 196.73L500.482 189.23L498.382 191.69V196.58C498.382 196.86 498.242 197 497.962 197H493.852Z" fill="black"/>
<path d="M174.6 165H162V48H180.9L201.42 125.22L222.12 48H241.02V165H228.42V68.16L207.36 147H195.66L174.6 68.16V165ZM335.461 70.5V142.5C335.461 150.54 332.881 156.78 327.721 161.22C322.681 165.54 315.061 167.7 304.861 167.7C294.781 167.7 287.161 165.54 282.001 161.22C276.841 156.78 274.261 150.54 274.261 142.5V70.5C274.261 62.46 276.781 56.28 281.821 51.96C286.981 47.52 294.601 45.3 304.681 45.3C314.881 45.3 322.561 47.52 327.721 51.96C332.881 56.28 335.461 62.46 335.461 70.5ZM322.861 142.5V70.5C322.861 60.9 316.861 56.1 304.861 56.1C292.861 56.1 286.861 60.9 286.861 70.5V142.5C286.861 152.1 292.861 156.9 304.861 156.9C316.861 156.9 322.861 152.1 322.861 142.5ZM403.279 165H384.379L357.919 48H370.519L393.739 151.14L417.139 48H429.739L403.279 165ZM498.952 142.5V132.6H511.552V142.5C511.552 150.54 509.092 156.78 504.172 161.22C499.252 165.54 491.872 167.7 482.032 167.7C472.192 167.7 464.752 165.54 459.712 161.22C454.672 156.78 452.152 150.54 452.152 142.5V70.5C452.152 62.46 454.612 56.28 459.532 51.96C464.452 47.52 471.832 45.3 481.672 45.3C491.512 45.3 498.952 47.52 503.992 51.96C509.032 56.28 511.552 62.46 511.552 70.5V110.1H464.752V142.5C464.752 152.1 470.452 156.9 481.852 156.9C493.252 156.9 498.952 152.1 498.952 142.5ZM464.752 70.5V99.3H498.952V70.5C498.952 60.9 493.252 56.1 481.852 56.1C470.452 56.1 464.752 60.9 464.752 70.5Z" fill="black"/>
</svg>
